<svg fill="#000000" xmlns="http://www.w3.org/2000/svg"  viewBox="0 0 32 32" width="32px" height="32px"><path d="M 8 5 L 8 12 L 4 12 L 4 22 L 6.1445312 22 C 6.0601659 22.321769 6 22.653001 6 23 C 6 25.197334 7.8026661 27 10 27 C 12.197334 27 14 25.197334 14 23 C 14 22.653001 13.939834 22.321769 13.855469 22 L 15 22 L 16 22 L 17.091797 22 C 17.572116 24.828207 20.039829 27 23 27 C 26.301625 27 29 24.301625 29 21 C 29 17.698375 26.301625 15 23 15 C 20.039829 15 17.572116 17.171793 17.091797 20 L 16.183594 20 C 16.483366 16.685593 17.894531 13.447266 17.894531 13.447266 L 17.966797 13.302734 L 18.867188 7 L 21 7 L 21 5 L 8 5 z M 10 7 L 16.847656 7 L 16.132812 12 L 10 12 L 10 7 z M 6 14 L 15.507812 14 C 14.998763 15.310033 14.284584 17.485886 14.103516 20 L 12.611328 20 C 11.907473 19.385801 11.000183 19 10 19 C 8.999817 19 8.0925272 19.385801 7.3886719 20 L 6 20 L 6 14 z M 23 17 C 25.220375 17 27 18.779625 27 21 C 27 23.220375 25.220375 25 23 25 C 21.127594 25 19.58132 23.728181 19.138672 22 L 23 22 L 23 20 L 19.138672 20 C 19.58132 18.271819 21.127594 17 23 17 z M 10 21 C 11.116666 21 12 21.883334 12 23 C 12 24.116666 11.116666 25 10 25 C 8.8833339 25 8 24.116666 8 23 C 8 21.883334 8.8833339 21 10 21 z"/></svg>