<?xml version="1.0" encoding="utf-8"?>
<!-- Generator: Adobe Illustrator 16.0.0, SVG Export Plug-In . SVG Version: 6.00 Build 0)  -->
<!DOCTYPE svg PUBLIC "-//W3C//DTD SVG 1.0//EN" "http://www.w3.org/TR/2001/REC-SVG-20010904/DTD/svg10.dtd">
<svg version="1.0" id="Layer_1" xmlns="http://www.w3.org/2000/svg" xmlns:xlink="http://www.w3.org/1999/xlink" x="0px" y="0px"
	 width="100px" height="100px" viewBox="0 0 100 100" enable-background="new 0 0 100 100" xml:space="preserve">
<polygon fill="#FFC107" points="30,53.331 43.333,13.333 66.667,13.333 66.667,46.665 60,46.665 60,19.999 48.138,19.999 
	37.028,53.333 "/>
<path fill="#212121" d="M53.333,46.665v6.668L30,53.331v6.668h-6.667V26.665h-6.666v46.669H10v6.665h13.333V66.667H30v10
	c0,5.52,4.479,10,10,10c4.346,0,8.008-2.793,9.389-6.668h15.797c2.309,3.965,6.563,6.668,11.481,6.668
	C84.025,86.667,90,80.69,90,73.334V46.665H53.333z M40,79.999c-1.843,0-3.333-1.496-3.333-3.332c0-1.844,1.49-3.333,3.333-3.333
	s3.333,1.489,3.333,3.333C43.333,78.503,41.843,79.999,40,79.999z M76.667,79.999c-3.679,0-6.667-2.988-6.667-6.665
	c0-3.679,2.988-6.667,6.667-6.667s6.666,2.988,6.666,6.667C83.333,77.011,80.346,79.999,76.667,79.999z M83.333,61.85
	c-1.97-1.147-4.226-1.851-6.666-1.851c-7.36,0-13.334,5.971-13.334,13.335H49.389c-1.381-3.874-5.042-6.667-9.389-6.667
	c-1.175,0-2.285,0.24-3.333,0.612v-7.28H60v-6.668h23.333V61.85z"/>
</svg>
