<?xml version="1.0" encoding="utf-8"?>
<!-- Generator: Adobe Illustrator 16.0.0, SVG Export Plug-In . SVG Version: 6.00 Build 0)  -->
<!DOCTYPE svg PUBLIC "-//W3C//DTD SVG 1.0//EN" "http://www.w3.org/TR/2001/REC-SVG-20010904/DTD/svg10.dtd">
<svg version="1.0" id="Layer_1" xmlns="http://www.w3.org/2000/svg" xmlns:xlink="http://www.w3.org/1999/xlink" x="0px" y="0px"
	 width="100px" height="100px" viewBox="0 0 100 100" enable-background="new 0 0 100 100" xml:space="preserve">
<path fill="#FFC107" d="M81.611,36.667L68.623,15.023C66.895,12.035,63.698,10,60,10c-3.701,0-6.895,2.035-8.623,5.02L38.389,36.667
	h7.773l10.931-18.218c0.669-1.149,1.735-1.782,2.907-1.782s2.238,0.633,2.852,1.693l10.983,18.306H81.611z"/>
<path fill="#212121" d="M90,36.667H32.292l-3.998-13.333H10V30h13.333l10,33.334V90H40l12.344-18.522l17.747,7.611
	C70.064,79.388,70,79.687,70,80c0,5.521,4.479,10,10,10s10-4.479,10-10s-4.479-9.999-10-9.999c-2.803,0-5.329,1.158-7.146,3.021
	l-8.778-3.763L90,43.333V36.667z M80,76.667c1.839,0,3.333,1.49,3.333,3.333c0,1.836-1.494,3.333-3.333,3.333
	S76.667,81.836,76.667,80C76.667,78.157,78.161,76.667,80,76.667z M40,77.981V66.19l6.113,2.617L40,77.981z M57.479,66.428
	l-18.657-7.996l-4.527-15.098h46.279L57.479,66.428z"/>
</svg>
