<?xml version="1.0" encoding="utf-8"?>
<!-- Generator: Adobe Illustrator 16.0.0, SVG Export Plug-In . SVG Version: 6.00 Build 0)  -->
<!DOCTYPE svg PUBLIC "-//W3C//DTD SVG 1.0//EN" "http://www.w3.org/TR/2001/REC-SVG-20010904/DTD/svg10.dtd">
<svg version="1.0" id="Layer_1" xmlns="http://www.w3.org/2000/svg" xmlns:xlink="http://www.w3.org/1999/xlink" x="0px" y="0px"
	 width="100px" height="100px" viewBox="0 0 100 100" enable-background="new 0 0 100 100" xml:space="preserve">
<path fill="#212121" d="M70,18.333l-1.25,0.833L55,10L25,30v18.333l-15,10l20,13.329l60-39.995L70,18.333z M30,63.652l-7.981-5.319
	l8.987-5.996l7.985,5.326L30,63.652z M41.667,51.432l-10-6.667V34.44l10,6.666V51.432z M37.019,30l17.974-11.992l7.987,5.326
	L45,35.319L37.019,30z M68.333,38.098l-20,13.333V41.106l20-13.326V38.098z M75,29.679l2.98,1.988L75,33.652V29.679z"/>
<polygon fill="#FFC107" points="83.333,36.113 83.333,46.433 63.333,59.766 63.333,49.446 56.667,53.887 56.667,64.206 
	33.333,79.766 33.333,69.439 30,71.662 26.667,69.44 26.667,79.766 16.667,73.1 16.667,62.776 10,58.333 10,76.667 30,90 90,50 
	90,31.667 "/>
</svg>
