<?xml version="1.0" encoding="utf-8"?>
<!-- Generator: Adobe Illustrator 16.0.0, SVG Export Plug-In . SVG Version: 6.00 Build 0)  -->
<!DOCTYPE svg PUBLIC "-//W3C//DTD SVG 1.0//EN" "http://www.w3.org/TR/2001/REC-SVG-20010904/DTD/svg10.dtd">
<svg version="1.0" id="Layer_1" xmlns="http://www.w3.org/2000/svg" xmlns:xlink="http://www.w3.org/1999/xlink" x="0px" y="0px"
	 width="100px" height="100px" viewBox="0 0 100 100" enable-background="new 0 0 100 100" xml:space="preserve">
<path fill="#FFC107" d="M90,73.333v-6.667H10v20h80v-6.665h-6.667v-6.668H90z M23.333,80.001h-6.666v-6.668h6.666V80.001z
	 M50,80.001H30v-6.668h20V80.001z M76.667,80.001h-20v-6.668h20V80.001z"/>
<path fill="#212121" d="M83.333,53.333V40H70V26.667H56.667V13.333H10v53.333h6.667v-6.665h20v6.665h6.666v-6.665h20v6.665H70
	v-6.665h20v-6.668H83.333z M63.333,33.333V40h-20v-6.667H63.333z M30,20h20v6.667H30V20z M16.667,20h6.666v6.667h-6.666V20z
	 M16.667,33.333h20V40h-20V33.333z M23.333,53.334h-6.666v-6.667h6.666V53.334z M50,53.333H30v-6.667h20V53.333z M76.667,53.334h-20
	v-6.667h20V53.334z"/>
</svg>
