<?xml version="1.0" encoding="utf-8"?>
<!-- Generator: Adobe Illustrator 16.0.0, SVG Export Plug-In . SVG Version: 6.00 Build 0)  -->
<!DOCTYPE svg PUBLIC "-//W3C//DTD SVG 1.0//EN" "http://www.w3.org/TR/2001/REC-SVG-20010904/DTD/svg10.dtd">
<svg version="1.0" id="Layer_1" xmlns="http://www.w3.org/2000/svg" xmlns:xlink="http://www.w3.org/1999/xlink" x="0px" y="0px"
	 width="100px" height="100px" viewBox="0 0 100 100" enable-background="new 0 0 100 100" xml:space="preserve">
<path fill="#FFC107" d="M78.333,40v-1.667C78.333,22.687,65.646,10,50,10c-15.647,0-28.333,12.687-28.333,28.333V40h-5v6.667h66.666
	V40H78.333z M71.667,40H28.333v-1.667c0-8.34,4.743-15.582,11.667-19.203v14.203h6.667V16.95c1.087-0.169,2.197-0.283,3.333-0.283
	c1.137,0,2.246,0.114,3.333,0.283v16.383H60V19.13c6.924,3.621,11.667,10.863,11.667,19.203V40z"/>
<path fill="#212121" d="M78.333,46.667V50c0,4.675-3.224,8.566-7.56,9.665c-2.021,7.347-5.139,13.466-8.944,17.649L65,90h-6.872
	l-2.044-8.182c-1.939,0.975-3.979,1.515-6.084,1.515c-2.106,0-4.141-0.54-6.081-1.515L41.872,90H35l3.171-12.686
	c-3.805-4.183-6.924-10.303-8.945-17.649c-4.336-1.099-7.559-4.99-7.559-9.665v-3.333h6.666V50c0,1.512,1.042,2.825,2.526,3.203
	l3.763,0.949l1.029,3.744C38.694,68.947,44.592,76.667,50,76.667s11.307-7.72,14.346-18.771l1.028-3.744l3.767-0.949
	c1.487-0.378,2.526-1.691,2.526-3.203l-0.004-3.312L78.333,46.667z"/>
</svg>
