<?xml version="1.0" encoding="utf-8"?>
<!-- Generator: Adobe Illustrator 16.0.0, SVG Export Plug-In . SVG Version: 6.00 Build 0)  -->
<!DOCTYPE svg PUBLIC "-//W3C//DTD SVG 1.0//EN" "http://www.w3.org/TR/2001/REC-SVG-20010904/DTD/svg10.dtd">
<svg version="1.0" id="Layer_1" xmlns="http://www.w3.org/2000/svg" xmlns:xlink="http://www.w3.org/1999/xlink" x="0px" y="0px"
	 width="100px" height="100px" viewBox="0 0 100 100" enable-background="new 0 0 100 100" xml:space="preserve">
<path fill="#212121" d="M40.234,36.191l-9.719,9.717l-7.07-11.784l-4.857,4.86l7.07,11.787L14.311,62.119l-2.998,6.991
	C10.593,70.794,10,73.675,10,75.509v2.538c0,1.832,1.063,4.396,2.355,5.688l4.312,4.312c2.604,2.604,6.821,2.604,9.427,0l7.07-7.069
	l21.214-21.215v-0.004L40.234,36.191z M21.38,83.333l-4.226-4.223c-0.188-0.24-0.455-0.885-0.487-1.063v-2.539
	c0-0.938,0.403-2.909,0.774-3.771l1.942-4.541l9.065,9.066L21.38,83.333z M33.164,71.549l-9.428-9.43l5.455-5.456l3.535,5.896
	l4.86-4.86l-3.535-5.892l4.86-4.863l7.07,11.787L33.164,71.549z"/>
<path fill="#FFC107" d="M54.378,59.759L87.07,27.067c3.906-3.902,3.906-10.236-0.004-14.137c-3.896-3.906-10.23-3.906-14.137-0.003
	L43.77,42.083l3.535,5.891l30.34-30.334c1.299-1.299,3.41-1.301,4.713,0c1.302,1.302,1.297,3.413-0.002,4.714L50.84,53.867
	L54.378,59.759z"/>
</svg>
