<?xml version="1.0" encoding="utf-8"?>
<!-- Generator: Adobe Illustrator 16.0.0, SVG Export Plug-In . SVG Version: 6.00 Build 0)  -->
<!DOCTYPE svg PUBLIC "-//W3C//DTD SVG 1.0//EN" "http://www.w3.org/TR/2001/REC-SVG-20010904/DTD/svg10.dtd">
<svg version="1.0" id="Layer_1" xmlns="http://www.w3.org/2000/svg" xmlns:xlink="http://www.w3.org/1999/xlink" x="0px" y="0px"
	 width="100px" height="100px" viewBox="0 0 100 100" enable-background="new 0 0 100 100" xml:space="preserve">
<path fill="#212121" d="M81.698,45.294l6.016-0.896c2.705-0.4,3.062-1.973,0.791-3.497l-11.021-7.379l5.214-3.128
	c2.344-1.406,2.073-2.995-0.609-3.535L69.088,24.26l3.617-4.889c1.628-2.194,0.771-3.561-1.914-3.031l-13.008,2.575l1.476-5.902
	c0.661-2.654-0.654-3.584-2.933-2.068l-11.033,7.357l-0.895-6.017c-0.404-2.708-1.977-3.06-3.5-0.788l-7.375,11.016l-3.13-5.213
	c-1.406-2.344-2.997-2.07-3.536,0.612l-2.598,13.001l-4.89-3.62c-2.198-1.627-3.562-0.768-3.028,1.92l2.572,13.008l-5.903-1.478
	c-2.652-0.664-3.583,0.656-2.066,2.93l7.356,11.035l-6.015,0.897c-2.708,0.4-3.06,1.974-0.788,3.496l11.016,7.377l-5.214,3.131
	c-2.344,1.406-2.07,2.996,0.611,3.533l13.001,2.601l-3.616,4.889c-1.63,2.194-0.77,3.56,1.917,3.031l13.008-2.575l-1.479,5.9
	c-0.664,2.655,0.659,3.582,2.93,2.069l11.034-7.357l0.898,6.016c0.4,2.701,1.974,3.061,3.497,0.787l7.378-11.019l3.13,5.215
	c1.406,2.344,2.994,2.07,3.531-0.612l2.602-13.001l4.889,3.62c2.194,1.628,3.559,0.769,3.03-1.917l-2.574-13.005l5.9,1.476
	c2.653,0.66,3.581-0.654,2.067-2.934L81.698,45.294z M50,76.668c-14.727,0-26.666-11.937-26.666-26.667
	c0-14.727,11.939-26.667,26.666-26.667s26.666,11.94,26.666,26.667C76.666,64.731,64.727,76.668,50,76.668z"/>
<path fill="#FFC107" d="M50,30.002c-11.041,0-19.999,8.951-19.999,19.999c0,11.047,8.958,20,19.999,20c11.045,0,20-8.952,20-20
	C70,38.955,61.045,30.002,50,30.002z M50,63.335c-7.359,0-13.333-5.971-13.333-13.333c0-7.359,5.974-13.333,13.333-13.333
	c7.362,0,13.333,5.974,13.333,13.333C63.333,57.364,57.362,63.335,50,63.335z"/>
<path fill="#212121" d="M56.666,50.001c0,3.681-2.984,6.667-6.666,6.667c-3.677,0-6.666-2.985-6.666-6.667
	c0-3.679,2.989-6.667,6.666-6.667C53.682,43.335,56.666,46.324,56.666,50.001z"/>
</svg>
