<?xml version="1.0" encoding="utf-8"?>
<!-- Generator: Adobe Illustrator 16.0.0, SVG Export Plug-In . SVG Version: 6.00 Build 0)  -->
<!DOCTYPE svg PUBLIC "-//W3C//DTD SVG 1.0//EN" "http://www.w3.org/TR/2001/REC-SVG-20010904/DTD/svg10.dtd">
<svg version="1.0" id="Layer_1" xmlns="http://www.w3.org/2000/svg" xmlns:xlink="http://www.w3.org/1999/xlink" x="0px" y="0px"
	 width="100px" height="100px" viewBox="0 0 100 100" enable-background="new 0 0 100 100" xml:space="preserve">
<rect x="10" y="83.333" fill="#212121" width="80" height="6.667"/>
<path fill="#212121" d="M38.333,50c0,6.445,5.222,11.667,11.667,11.667S61.667,56.445,61.667,50H55c0,2.762-2.238,5-5,5
	s-5-2.238-5-5H38.333z"/>
<path fill="#FFC107" d="M76.13,50l3.158,4.742c1.137,1.709,0.438,2.695-1.55,2.199l-4.428-1.105l1.935,9.756
	c0.397,2.012-0.627,2.657-2.271,1.436l-3.67-2.715l-1.949,9.752c-0.403,2.013-1.594,2.217-2.649,0.459l-2.347-3.912l-5.534,8.266
	c-1.142,1.702-2.324,1.436-2.62-0.589l-0.674-4.517l-8.278,5.519c-1.706,1.138-2.694,0.438-2.194-1.55l1.104-4.428l-9.756,1.932
	c-2.011,0.396-2.66-0.625-1.438-2.27l2.715-3.668l-9.751-1.951c-2.013-0.402-2.214-1.594-0.456-2.648l3.909-2.352l-8.263-5.529
	c-1.706-1.143-1.438-2.324,0.589-2.624l4.512-0.675L23.874,50h7.793c0,10.127,8.206,18.333,18.333,18.333
	c10.127,0,18.333-8.206,18.333-18.333H76.13z"/>
<path fill="#212121" d="M50,10c-20.247,0-36.667,16.419-36.667,36.667V50h73.334v-3.333C86.667,26.419,70.247,10,50,10z
	 M20.184,43.333C21.849,28.353,34.583,16.667,50,16.667s28.15,11.686,29.814,26.667H20.184z"/>
</svg>
