<?xml version="1.0" encoding="utf-8"?>
<!-- Generator: Adobe Illustrator 16.0.0, SVG Export Plug-In . SVG Version: 6.00 Build 0)  -->
<!DOCTYPE svg PUBLIC "-//W3C//DTD SVG 1.0//EN" "http://www.w3.org/TR/2001/REC-SVG-20010904/DTD/svg10.dtd">
<svg version="1.0" id="Layer_1" xmlns="http://www.w3.org/2000/svg" xmlns:xlink="http://www.w3.org/1999/xlink" x="0px" y="0px"
	 width="100px" height="100px" viewBox="0 0 100 100" enable-background="new 0 0 100 100" xml:space="preserve">
<path fill="#FFC107" d="M76.762,21.288c4.104,5.131,6.571,11.63,6.571,18.711c0,16.569-13.429,30.002-30,30.002
	c-7.083,0-13.58-2.469-18.711-6.576l4.756-4.759c9.138,6.849,22.144,6.146,30.456-2.166c8.311-8.312,9.014-21.315,2.168-30.456
	L76.762,21.288z"/>
<path fill="#212121" d="M30,83.333v-9.999c0-1.544-0.378-2.981-1.003-4.29L49.046,49c1.306,0.622,2.744,0.999,4.287,0.999
	c5.521,0,10-4.477,10-10c0-1.541-0.377-2.982-0.999-4.287l20.999-20.996L78.616,10l-6.572,6.571C66.914,12.469,60.417,10,53.333,10
	c-16.567,0-30,13.433-30,29.999c0,7.084,2.468,13.581,6.576,18.713l-5.625,5.618C22.98,63.712,21.54,63.334,20,63.334
	c-5.521,0-10,4.478-10,10V90h80v-6.667H30z M53.333,36.667c1.84,0,3.334,1.492,3.334,3.333c0,1.841-1.494,3.334-3.334,3.334
	c-1.842,0-3.333-1.493-3.333-3.334C50,38.159,51.491,36.667,53.333,36.667z M23.333,83.333h-6.666v-9.999
	c0-1.843,1.497-3.333,3.333-3.333s3.333,1.49,3.333,3.333V83.333z"/>
</svg>
