<?xml version="1.0" encoding="utf-8"?>
<!-- Generator: Adobe Illustrator 16.0.0, SVG Export Plug-In . SVG Version: 6.00 Build 0)  -->
<!DOCTYPE svg PUBLIC "-//W3C//DTD SVG 1.0//EN" "http://www.w3.org/TR/2001/REC-SVG-20010904/DTD/svg10.dtd">
<svg version="1.0" id="Layer_1" xmlns="http://www.w3.org/2000/svg" xmlns:xlink="http://www.w3.org/1999/xlink" x="0px" y="0px"
	 width="100px" height="100px" viewBox="0 0 100 100" enable-background="new 0 0 100 100" xml:space="preserve">
<path fill="#FFC107" d="M90,16.667V10H70v6.667h6.667v46.666H70V80c0,5.521,4.479,10,10,10s10-4.479,10-10V63.333h-6.667V16.667H90z
	 M83.333,80c0,1.836-1.494,3.333-3.333,3.333S76.667,81.836,76.667,80v-9.999h6.666V80z"/>
<path fill="#212121" d="M63.333,36.668v-6.667H40V16.667H10v20.001h11.667v6.667H10v19.998h11.667v6.668H10V90h53.333V70.001H51.667
	v-6.668h11.666V43.335H51.667v-6.667H63.333z M45,36.668v6.667H28.333v-6.667H45z M16.667,30.001v-6.668h16.666v6.668H16.667z
	 M16.667,56.668v-6.667h16.666v6.667H16.667z M45,63.333v6.668H28.333v-6.668H45z M33.333,83.333H16.667v-6.666h16.666V83.333z
	 M56.667,76.667v6.666H40v-6.666H56.667z M56.667,50.001v6.667H40v-6.667H56.667z"/>
</svg>
