<?xml version="1.0" encoding="utf-8"?>
<!-- Generator: Adobe Illustrator 16.0.0, SVG Export Plug-In . SVG Version: 6.00 Build 0)  -->
<!DOCTYPE svg PUBLIC "-//W3C//DTD SVG 1.0//EN" "http://www.w3.org/TR/2001/REC-SVG-20010904/DTD/svg10.dtd">
<svg version="1.0" id="Layer_1" xmlns="http://www.w3.org/2000/svg" xmlns:xlink="http://www.w3.org/1999/xlink" x="0px" y="0px"
	 width="100px" height="100px" viewBox="0 0 100 100" enable-background="new 0 0 100 100" xml:space="preserve">
<path fill="#FFC107" d="M63.034,10L32.363,20.026c-2.572,0.975-3.082,3.363-1.139,5.305l7.06,7.06l-2.764,2.76h-4.999
	c-2.689,0-5.658,1.23-7.559,3.133L10,51.243l4.712,4.721l12.963-12.968c0.65-0.646,1.93-1.179,2.846-1.179l6.1,0.006
	c0.911-0.006,2.194-0.533,2.845-1.184l3.535-3.535l7.059,7.057c1.945,1.952,4.328,1.433,5.306-1.134l10.026-30.671L63.034,10z
	 M50.813,35.489L39.893,24.573l16.221-5.303L50.813,35.489z"/>
<path fill="#212121" d="M90,36.667v-6.666H76.667v13.333H63.333v13.333h-40v13.334H10V90h80v-6.668H70v-6.666h20v-6.665h-6.667
	v-6.668H90v-6.666H70v-6.666h20v-6.667h-6.667v-6.667H90z M30,63.333h20v6.668H30V63.333z M36.667,83.332H16.666v-6.666h20.001
	V83.332z M63.333,83.332h-20v-6.666h20V83.332z M76.667,63.333v6.668h-20v-6.668H76.667z"/>
</svg>
