<?xml version="1.0" encoding="utf-8"?>
<!-- Generator: Adobe Illustrator 16.0.0, SVG Export Plug-In . SVG Version: 6.00 Build 0)  -->
<!DOCTYPE svg PUBLIC "-//W3C//DTD SVG 1.0//EN" "http://www.w3.org/TR/2001/REC-SVG-20010904/DTD/svg10.dtd">
<svg version="1.0" id="Layer_1" xmlns="http://www.w3.org/2000/svg" xmlns:xlink="http://www.w3.org/1999/xlink" x="0px" y="0px"
	 width="100px" height="100px" viewBox="0 0 100 100" enable-background="new 0 0 100 100" xml:space="preserve">
<path fill="#FFC107" d="M10,70.001V90h80V70.001H10z M83.333,83.332H16.667v-6.666h66.666V83.332z"/>
<path fill="#212121" d="M90,70.001L61.087,50.723c1.413-2.117,2.246-4.658,2.246-7.39h-6.666c0,1.369-0.417,2.638-1.123,3.697
	L50,43.333l-5.547,3.697c-0.704-1.059-1.12-2.328-1.12-3.697c0-3.682,2.985-6.667,6.667-6.667h3.333V10h-6.666v20.473
	c-5.736,1.491-10,6.666-10,12.86c0,2.732,0.833,5.272,2.246,7.39L10,70.001h12.019L44.141,55.25c1.777,0.879,3.75,1.416,5.859,1.416
	c2.109,0,4.082-0.537,5.859-1.416l22.122,14.751H90z"/>
</svg>
