<?xml version="1.0" encoding="utf-8"?>
<!-- Generator: Adobe Illustrator 16.0.0, SVG Export Plug-In . SVG Version: 6.00 Build 0)  -->
<!DOCTYPE svg PUBLIC "-//W3C//DTD SVG 1.0//EN" "http://www.w3.org/TR/2001/REC-SVG-20010904/DTD/svg10.dtd">
<svg version="1.0" id="Layer_1" xmlns="http://www.w3.org/2000/svg" xmlns:xlink="http://www.w3.org/1999/xlink" x="0px" y="0px"
	 width="100px" height="100px" viewBox="0 0 100 100" enable-background="new 0 0 100 100" xml:space="preserve">
<path fill="#212121" d="M80,70.001H60v-6.667h-6.667v6.667h-6.666v-6.667H40v6.667H20c-5.523,0-10,4.479-10,9.999s4.477,10,10,10h60
	c5.521,0,10-4.479,10-10S85.521,70.001,80,70.001z M80,83.333H20c-1.839,0-3.333-1.497-3.333-3.333c0-1.843,1.494-3.333,3.333-3.333
	h60c1.839,0,3.333,1.49,3.333,3.333C83.333,81.836,81.839,83.333,80,83.333z"/>
<path fill="#212121" d="M72.227,10L57.225,35.004L60,43.333l15.999-26.666h7.334v25.554L70,46.667l-0.003,10
	c0,3.68,2.983,6.668,6.666,6.668h6.67c3.683,0,6.667-2.988,6.667-6.668V10H72.227z M83.333,56.666h-6.67l0.004-5.193l6.666-2.224
	V56.666z"/>
<path fill="#FFC107" d="M53.333,23.333h-20v20H16.667C12.984,43.333,10,46.319,10,50v13.334h50V43.333L53.333,23.333z M40,30h8.527
	l4.443,13.333H40V30z M53.333,56.666H16.667V50h36.667V56.666z"/>
</svg>
