<?xml version="1.0" encoding="utf-8"?>
<!-- Generator: Adobe Illustrator 16.0.0, SVG Export Plug-In . SVG Version: 6.00 Build 0)  -->
<!DOCTYPE svg PUBLIC "-//W3C//DTD SVG 1.0//EN" "http://www.w3.org/TR/2001/REC-SVG-20010904/DTD/svg10.dtd">
<svg version="1.0" id="Layer_1" xmlns="http://www.w3.org/2000/svg" xmlns:xlink="http://www.w3.org/1999/xlink" x="0px" y="0px"
	 width="100px" height="100px" viewBox="0 0 100 100" enable-background="new 0 0 100 100" xml:space="preserve">
<path fill="#212121" d="M53.333,33.333v10h-6.666v-10H40V90h20V33.333H53.333z M53.333,83.333h-6.666v-6.666h6.666V83.333z
	 M53.333,70h-6.666v-6.667h6.666V70z M53.333,56.667h-6.666V50h6.666V56.667z"/>
<path fill="#FFC107" d="M50,10c-11.044,0-20,8.956-20,20v3.333h40V30C70,18.956,61.045,10,50,10z M37.09,26.667
	c1.204-4.674,4.909-8.318,9.577-9.53v4.53h6.666v-4.53c4.672,1.212,8.373,4.856,9.577,9.53H37.09z"/>
</svg>
