<?xml version="1.0" encoding="utf-8"?>
<!-- Generator: Adobe Illustrator 16.0.0, SVG Export Plug-In . SVG Version: 6.00 Build 0)  -->
<!DOCTYPE svg PUBLIC "-//W3C//DTD SVG 1.0//EN" "http://www.w3.org/TR/2001/REC-SVG-20010904/DTD/svg10.dtd">
<svg version="1.0" id="Layer_1" xmlns="http://www.w3.org/2000/svg" xmlns:xlink="http://www.w3.org/1999/xlink" x="0px" y="0px"
	 width="100px" height="100px" viewBox="0 0 100 100" enable-background="new 0 0 100 100" xml:space="preserve">
<path fill="#212121" d="M55,10H25L10,36.667l15,26.666h30l15-26.666L55,10z M51.102,56.667H28.899l-11.25-20l11.25-20H51.1l11.25,20
	L51.102,56.667z"/>
<path fill="#FFC107" d="M40,23.333c-7.363,0-13.333,5.971-13.333,13.333C26.667,44.029,32.637,50,40,50s13.333-5.971,13.333-13.333
	C53.333,29.305,47.363,23.333,40,23.333z M40,43.333c-3.682,0-6.667-2.984-6.667-6.666C33.333,32.984,36.318,30,40,30
	s6.667,2.984,6.667,6.667C46.667,40.349,43.682,43.333,40,43.333z"/>
<path fill="#212121" d="M30,70c-5.518,0-10,4.482-10,10s4.482,10,10,10s10-4.482,10-10S35.518,70,30,70z M30,83.333
	c-1.839,0-3.333-1.494-3.333-3.333s1.494-3.333,3.333-3.333s3.333,1.494,3.333,3.333S31.839,83.333,30,83.333z"/>
<path fill="#FFC107" d="M84.375,10h-11.25L67.5,20l5.625,10h11.25L90,20L84.375,10z M78.75,23.333c-1.839,0-3.333-1.494-3.333-3.333
	s1.494-3.333,3.333-3.333S82.083,18.16,82.083,20S80.589,23.333,78.75,23.333z"/>
<path fill="#212121" d="M75,60c-8.277,0-15,6.723-15,15s6.723,15,15,15s15-6.723,15-15S83.277,60,75,60z M83.333,75
	c0,1.07-0.222,2.09-0.589,3.029L71.971,67.256c0.939-0.367,1.959-0.589,3.029-0.589C79.6,66.667,83.333,70.4,83.333,75z M66.667,75
	c0-1.07,0.222-2.09,0.589-3.029l10.773,10.773C77.09,83.111,76.07,83.333,75,83.333C70.4,83.333,66.667,79.6,66.667,75z"/>
</svg>
