<?xml version="1.0" encoding="utf-8"?>
<!-- Generator: Adobe Illustrator 16.0.0, SVG Export Plug-In . SVG Version: 6.00 Build 0)  -->
<!DOCTYPE svg PUBLIC "-//W3C//DTD SVG 1.0//EN" "http://www.w3.org/TR/2001/REC-SVG-20010904/DTD/svg10.dtd">
<svg version="1.0" id="Layer_1" xmlns="http://www.w3.org/2000/svg" xmlns:xlink="http://www.w3.org/1999/xlink" x="0px" y="0px"
	 width="100px" height="100px" viewBox="0 0 100 100" enable-background="new 0 0 100 100" xml:space="preserve">
<polygon fill="#FFC107" points="30,16.667 30,10 70,10 70,16.667 53.333,16.667 53.333,21.667 46.667,21.667 46.667,16.667 "/>
<path fill="#212121" d="M61.667,16.667l-8.334,11.112v9.516l-6.666,1.664V27.779l-8.334-11.112H30L40,30v46.667L50,90l10-13.333V30
	l10-13.333H61.667z M53.333,74.443L50,78.891l-3.333-4.447V72.5l6.666-1.667V74.443z M53.333,63.962l-6.666,1.663v-6.458
	l6.666-1.667V63.962z M53.333,50.628l-6.666,1.664v-6.459l6.666-1.666V50.628z"/>
</svg>
