<?xml version="1.0" encoding="utf-8"?>
<!-- Generator: Adobe Illustrator 16.0.0, SVG Export Plug-In . SVG Version: 6.00 Build 0)  -->
<!DOCTYPE svg PUBLIC "-//W3C//DTD SVG 1.0//EN" "http://www.w3.org/TR/2001/REC-SVG-20010904/DTD/svg10.dtd">
<svg version="1.0" id="Layer_1" xmlns="http://www.w3.org/2000/svg" xmlns:xlink="http://www.w3.org/1999/xlink" x="0px" y="0px"
	 width="100px" height="100px" viewBox="0 0 100 100" enable-background="new 0 0 100 100" xml:space="preserve">
<rect x="9.762" y="15.287" transform="matrix(-0.7072 -0.707 0.707 -0.7072 18.623 44.9511)" fill="#FFC107" width="17.715" height="6.665"/>
<rect x="10" y="33.333" fill="#FFC107" width="10" height="6.667"/>
<rect x="33.333" y="10" fill="#FFC107" width="6.667" height="10.002"/>
<path fill="#FFC107" d="M29.594,43.738c-3.906-3.908-3.906-10.238,0-14.141c3.904-3.906,10.236-3.906,14.143,0l-4.713,4.712
	c-1.301-1.3-3.41-1.3-4.713,0c-1.303,1.303-1.303,3.413,0,4.713L29.594,43.738z"/>
<path fill="#212121" d="M87.073,72.932L62.594,48.451l-9.428-18.853l-4.717-4.716L24.881,48.451l4.713,4.714l18.854,9.427
	L72.93,87.07c3.903,3.906,10.237,3.906,14.141,0C90.977,83.172,90.977,76.837,87.073,72.932z M47.137,54.48l-12.572-6.285
	l13.633-13.631l6.285,12.572L47.137,54.48z M82.359,82.352c-0.854,0.854-1.846,0.982-2.359,0.982c-0.516,0-1.507-0.13-2.354-0.977
	L53.164,57.879l4.717-4.714l24.479,24.479c0.848,0.846,0.975,1.842,0.975,2.355S83.206,81.505,82.359,82.352z"/>
</svg>
