<?xml version="1.0" encoding="utf-8"?>
<!-- Generator: Adobe Illustrator 16.0.0, SVG Export Plug-In . SVG Version: 6.00 Build 0)  -->
<!DOCTYPE svg PUBLIC "-//W3C//DTD SVG 1.0//EN" "http://www.w3.org/TR/2001/REC-SVG-20010904/DTD/svg10.dtd">
<svg version="1.0" id="Layer_1" xmlns="http://www.w3.org/2000/svg" xmlns:xlink="http://www.w3.org/1999/xlink" x="0px" y="0px"
	 width="100px" height="100px" viewBox="0 0 100 100" enable-background="new 0 0 100 100" xml:space="preserve">
<polygon fill="#FFC107" points="30,49.999 56.667,49.999 56.667,56.666 50,56.666 50,70.001 56.667,70.001 56.667,76.667 
	43.333,76.667 43.333,56.666 30,56.666 "/>
<polygon fill="#FFC107" points="30,30 76.667,30 76.667,76.667 63.333,76.667 63.333,70.001 70,70.001 70,56.666 63.333,56.666 
	63.333,49.999 70,49.999 70,36.667 50,36.667 50,43.333 43.333,43.333 43.333,36.667 30,36.667 "/>
<path fill="#212121" d="M30,16.667V10H20c-5.521,0-10,4.48-10,10v60c0,5.521,4.479,10,10,10h70V16.667H30z M16.667,20
	c0-1.837,1.497-3.333,3.333-3.333h3.333v53.333H20c-1.175,0-2.285,0.24-3.333,0.611V20z M83.333,83.333H20
	c-1.836,0-3.333-1.497-3.333-3.333c0-1.842,1.497-3.333,3.333-3.333h10V23.333h53.333V83.333z"/>
</svg>
