<?xml version="1.0" encoding="utf-8"?>
<!-- Generator: Adobe Illustrator 16.0.0, SVG Export Plug-In . SVG Version: 6.00 Build 0)  -->
<!DOCTYPE svg PUBLIC "-//W3C//DTD SVG 1.0//EN" "http://www.w3.org/TR/2001/REC-SVG-20010904/DTD/svg10.dtd">
<svg version="1.0" id="Layer_1" xmlns="http://www.w3.org/2000/svg" xmlns:xlink="http://www.w3.org/1999/xlink" x="0px" y="0px"
	 width="100px" height="100px" viewBox="0 0 100 100" enable-background="new 0 0 100 100" xml:space="preserve">
<path fill="#FFC107" d="M87.073,72.932l-15.62-15.625L57.309,71.445L72.93,87.07c3.906,3.906,10.242,3.906,14.14,0
	C90.977,83.172,90.977,76.837,87.073,72.932z M82.355,82.357c-0.852,0.854-1.84,0.978-2.353,0.978c-0.52,0-1.509-0.124-2.358-0.978
	L66.73,71.453l4.718-4.727l10.915,10.919C83.655,78.939,83.655,81.055,82.355,82.357z"/>
<path fill="#212121" d="M69.667,40.239l-28.29-28.287c-2.598-2.602-6.826-2.604-9.427,0.001l-7.641,7.641l-9.596-9.593L10,14.711
	l9.598,9.598l-4.715,4.713l4.71,4.717l4.718-4.715l28.28,28.281l-4.713,4.716l4.713,4.712l4.715-4.712l4.714,4.719l4.716-4.711
	l-4.717-4.722l7.648-7.644C72.268,47.064,72.268,42.84,69.667,40.239z M57.306,52.594L29.023,24.311l7.637-7.643L64.955,44.95
	L57.306,52.594z"/>
</svg>
