<?xml version="1.0" encoding="utf-8"?>
<!-- Generator: Adobe Illustrator 16.0.0, SVG Export Plug-In . SVG Version: 6.00 Build 0)  -->
<!DOCTYPE svg PUBLIC "-//W3C//DTD SVG 1.0//EN" "http://www.w3.org/TR/2001/REC-SVG-20010904/DTD/svg10.dtd">
<svg version="1.0" id="Layer_1" xmlns="http://www.w3.org/2000/svg" xmlns:xlink="http://www.w3.org/1999/xlink" x="0px" y="0px"
	 width="100px" height="100px" viewBox="0 0 100 100" enable-background="new 0 0 100 100" xml:space="preserve">
<path fill="#212121" d="M89.831,53.332C89.922,52.229,90,51.123,90,49.999c0-1.125-0.078-2.232-0.169-3.334h-6.667
	c-0.215-2.161-0.645-4.258-1.25-6.275l6.186-2.563c-0.685-2.138-1.557-4.187-2.568-6.149l-6.165,2.552
	c-1.017-1.892-2.21-3.672-3.562-5.319l4.723-4.724c-1.438-1.7-3.014-3.276-4.713-4.715l-4.724,4.725
	c-1.647-1.352-3.428-2.547-5.319-3.563l2.553-6.162c-1.963-1.016-4.014-1.887-6.148-2.57l-2.564,6.187
	c-2.02-0.606-4.114-1.039-6.276-1.253V10.17C52.23,10.077,51.125,10,49.999,10c-1.123,0-2.23,0.078-3.33,0.168v6.667
	c-2.162,0.214-4.258,0.646-6.276,1.253l-2.565-6.188c-2.135,0.684-4.186,1.556-6.148,2.57l2.552,6.164
	c-1.892,1.017-3.669,2.212-5.322,3.561l-4.72-4.723c-1.699,1.439-3.275,3.016-4.714,4.713l4.72,4.724
	c-1.348,1.651-2.542,3.43-3.561,5.32l-6.159-2.552c-1.016,1.965-1.888,4.013-2.571,6.15l6.185,2.563
	c-0.605,2.021-1.035,4.116-1.25,6.277h-6.667C10.078,47.767,10,48.874,10,49.999c0,1.124,0.078,2.23,0.169,3.333h6.667
	c0.215,2.161,0.645,4.258,1.25,6.276l-6.185,2.565c0.684,2.136,1.553,4.187,2.568,6.146l6.162-2.551h0.003
	c1.019,1.895,2.21,3.672,3.562,5.317l-0.004,0.007l-4.72,4.721c1.438,1.699,3.015,3.274,4.714,4.713l4.723-4.727
	c1.65,1.354,3.428,2.547,5.319,3.563v0.006l-2.552,6.158c1.963,1.017,4.014,1.889,6.148,2.572l2.565-6.186v-0.007
	c2.019,0.612,4.114,1.042,6.276,1.257v6.667c1.1,0.091,2.207,0.169,3.33,0.169c1.126,0,2.231-0.078,3.336-0.169v-6.667
	c2.162-0.215,4.258-0.645,6.276-1.257l2.562,6.19c2.14-0.684,4.188-1.556,6.151-2.57L65.77,79.36
	c1.892-1.016,3.668-2.207,5.318-3.562l4.723,4.728c1.699-1.438,3.275-3.016,4.715-4.715l-4.725-4.727
	c1.352-1.646,2.547-3.432,3.563-5.318h0.003l6.161,2.553c1.017-1.961,1.89-4.012,2.568-6.146l-6.188-2.564
	c0.607-2.021,1.037-4.116,1.253-6.277L89.831,53.332L89.831,53.332z M50,76.667c-14.727,0-26.667-11.947-26.667-26.668
	c0-14.729,11.94-26.667,26.667-26.667c14.727,0,26.667,11.938,26.667,26.667C76.667,64.72,64.727,76.667,50,76.667z"/>
<path fill="#FFC107" d="M50.381,53.332H40l8.724-23.269C38.274,30.724,30,39.382,30,49.999c0,9.109,6.097,16.785,14.434,19.2
	L50.381,53.332z"/>
<path fill="#FFC107" d="M55.568,30.802l-5.949,15.863H60l-8.725,23.27C61.723,69.271,70,60.612,70,49.999
	C70,40.888,63.898,33.215,55.568,30.802z"/>
</svg>
