<?xml version="1.0" encoding="utf-8"?>
<!-- Generator: Adobe Illustrator 16.0.0, SVG Export Plug-In . SVG Version: 6.00 Build 0)  -->
<!DOCTYPE svg PUBLIC "-//W3C//DTD SVG 1.0//EN" "http://www.w3.org/TR/2001/REC-SVG-20010904/DTD/svg10.dtd">
<svg version="1.0" id="Layer_1" xmlns="http://www.w3.org/2000/svg" xmlns:xlink="http://www.w3.org/1999/xlink" x="0px" y="0px"
	 width="100px" height="100px" viewBox="0 0 100 100" enable-background="new 0 0 100 100" xml:space="preserve">
<polygon fill="#212121" points="33.333,36.667 33.333,43.332 40,43.332 23.333,90 30.41,90 46.667,44.484 46.667,90 53.333,90 
	53.333,44.484 69.59,90 76.667,90 60,43.333 66.667,43.333 66.667,36.667 "/>
<path fill="#FFC107" d="M63.333,10H36.667c-1.833,0-3.334,1.498-3.334,3.333v3.333h-6.666v6.667h6.666v3.333
	c0,1.829,1.501,3.333,3.334,3.333H40v6.667l6.667,0V30h6.666v6.667H60V30h3.333c1.833,0,3.334-1.504,3.334-3.333V13.333
	C66.667,11.497,65.166,10,63.333,10z M60,23.333H40v-6.667h20V23.333z"/>
</svg>
