<?xml version="1.0" encoding="utf-8"?>
<!-- Generator: Adobe Illustrator 16.0.0, SVG Export Plug-In . SVG Version: 6.00 Build 0)  -->
<!DOCTYPE svg PUBLIC "-//W3C//DTD SVG 1.0//EN" "http://www.w3.org/TR/2001/REC-SVG-20010904/DTD/svg10.dtd">
<svg version="1.0" id="Layer_1" xmlns="http://www.w3.org/2000/svg" xmlns:xlink="http://www.w3.org/1999/xlink" x="0px" y="0px"
	 width="100px" height="100px" viewBox="0 0 100 100" enable-background="new 0 0 100 100" xml:space="preserve">
<path fill="#212121" d="M65.21,36.667H10v5.742l2.917,3.431l4.153-0.938l2.496,3.43l4.134-0.942l2.5,3.43l4.156-0.93l2.506,3.43
	l4.148-0.938l2.52,3.438l4.152-0.938l2.517,3.439l4.145-0.942l2.52,3.44l4.167-0.932l2.536,3.444l12.304-0.002L65.21,36.667z
	 M28.984,43.333H60l3.21,12.832L28.984,43.333z"/>
<path fill="#FFC107" d="M71.872,63.331l14.796-0.002v0.004C88.509,63.333,90,61.844,90,60c0-1.839-1.491-3.333-3.333-3.333v-0.004
	h-3.334v-13.33h3.334C88.509,43.333,90,41.844,90,40c0-1.839-1.491-3.333-3.333-3.333H65.21l1.665,6.666h9.792v13.33h-6.462
	L71.872,63.331z"/>
</svg>
