<?xml version="1.0" encoding="utf-8"?>
<!-- Generator: Adobe Illustrator 16.0.0, SVG Export Plug-In . SVG Version: 6.00 Build 0)  -->
<!DOCTYPE svg PUBLIC "-//W3C//DTD SVG 1.0//EN" "http://www.w3.org/TR/2001/REC-SVG-20010904/DTD/svg10.dtd">
<svg version="1.0" id="Layer_1" xmlns="http://www.w3.org/2000/svg" xmlns:xlink="http://www.w3.org/1999/xlink" x="0px" y="0px"
	 width="100px" height="100px" viewBox="0 0 100 100" enable-background="new 0 0 100 100" xml:space="preserve">
<path fill="#FFC107" d="M44.395,51.059c2.715-2.711,6.465-4.392,10.605-4.392s7.891,1.677,10.605,4.392l4.713-4.712
	c-3.92-3.92-9.336-6.345-15.318-6.345s-11.398,2.425-15.318,6.345L44.395,51.059z"/>
<path fill="#212121" d="M55,26.667c-19.329,0-35,15.671-35,35v5l-10,3.334v3.332h80V61.667C90,42.338,74.329,26.667,55,26.667z
	 M83.333,66.667h-5l-1.666-6.666h-3.334l-1.666,6.666H65l-1.667-6.666H60l-1.667,6.666h-6.666L50,60.001h-3.333L45,66.667h-6.667
	l-1.666-6.666h-3.334l-1.667,6.666h-5v-5c0-15.647,12.688-28.333,28.333-28.333c15.646,0,28.333,12.686,28.333,28.333V66.667z"/>
</svg>
