<?xml version="1.0" encoding="utf-8"?>
<!-- Generator: Adobe Illustrator 16.0.0, SVG Export Plug-In . SVG Version: 6.00 Build 0)  -->
<!DOCTYPE svg PUBLIC "-//W3C//DTD SVG 1.0//EN" "http://www.w3.org/TR/2001/REC-SVG-20010904/DTD/svg10.dtd">
<svg version="1.0" id="Layer_1" xmlns="http://www.w3.org/2000/svg" xmlns:xlink="http://www.w3.org/1999/xlink" x="0px" y="0px"
	 width="100px" height="100px" viewBox="0 0 100 100" enable-background="new 0 0 100 100" xml:space="preserve">
<polygon fill="#FFC107" points="64.376,40.334 90,14.711 75.861,10 54.951,30.906 "/>
<path fill="#212121" d="M50.238,26.194l-35.354,35.35c-6.51,6.511-6.513,17.069,0,23.574c6.511,6.51,17.058,6.51,23.57,0l7.068-7.07
	l2.355-11.784L69.09,45.05L50.238,26.194z M19.598,80.404l-0.007-0.006c-3.893-3.895-3.893-10.234,0.007-14.135l14.14,14.141
	C29.838,84.305,23.495,84.305,19.598,80.404z M39.382,74.76l-0.926,0.932L24.311,61.551l7.07-7.076l10.044,10.051L39.382,74.76z
	 M45.522,59.193l-9.428-9.43l4.715-4.714l9.426,9.431L45.522,59.193z M45.522,40.333l4.716-4.715l9.427,9.431l-4.717,4.716
	L45.522,40.333z"/>
</svg>
