<?xml version="1.0" encoding="utf-8"?>
<!-- Generator: Adobe Illustrator 16.0.0, SVG Export Plug-In . SVG Version: 6.00 Build 0)  -->
<!DOCTYPE svg PUBLIC "-//W3C//DTD SVG 1.0//EN" "http://www.w3.org/TR/2001/REC-SVG-20010904/DTD/svg10.dtd">
<svg version="1.0" id="Layer_1" xmlns="http://www.w3.org/2000/svg" xmlns:xlink="http://www.w3.org/1999/xlink" x="0px" y="0px"
	 width="100px" height="100px" viewBox="0 0 100 100" enable-background="new 0 0 100 100" xml:space="preserve">
<path fill="#212121" d="M65.001,20v3.333h-3.335V10h-10v6.667h3.335v6.667h-3.335V30h3.335v1.094c0,0.983-0.885,3.125-1.582,3.821
	l-2.213,2.208c-1.871-0.563-3.874-0.563-5.745,0l-2.212-2.207c-0.696-0.696-1.582-2.838-1.582-3.821V16.667h3.334V10h-10v21.094
	c0,2.747,1.592,6.589,3.535,8.535l1.483,1.484l0.091-0.066c-2.661,3.882-2.273,9.215,1.178,12.667
	c3.895,3.895,10.198,3.895,14.092,0.001c3.449-3.449,3.837-8.782,1.18-12.663l0.086,0.063l1.486-1.484
	c1.943-1.946,3.534-5.788,3.534-8.535V30h3.335v3.333h6.665V20H65.001z M48.334,50c-1.842,0-3.333-1.491-3.333-3.333
	c0-1.843,1.49-3.334,3.333-3.334s3.332,1.491,3.332,3.334C51.666,48.509,50.177,50,48.334,50z"/>
<path fill="#FFC107" d="M41.288,53.713c-1.207-1.207-2.038-2.646-2.497-4.171l-8.102,8.101c-1.295,1.295-2.355,3.854-2.355,5.689V90
	h6.667l-0.007-26.543c0.039-0.307,0.306-0.95,0.409-1.102l7.376-7.383l-0.056-0.076C42.22,54.552,41.736,54.161,41.288,53.713z"/>
<path fill="#FFC107" d="M65.978,57.645l-8.101-8.104c-0.458,1.527-1.29,2.965-2.497,4.173c-0.452,0.452-0.94,0.847-1.45,1.194
	l-0.048,0.064l7.383,7.383c0.104,0.15,0.369,0.795,0.408,1.102L61.666,90h6.669V63.333C68.335,61.497,67.272,58.938,65.978,57.645z"
	/>
</svg>
