<?xml version="1.0" encoding="utf-8"?>
<!-- Generator: Adobe Illustrator 16.0.0, SVG Export Plug-In . SVG Version: 6.00 Build 0)  -->
<!DOCTYPE svg PUBLIC "-//W3C//DTD SVG 1.0//EN" "http://www.w3.org/TR/2001/REC-SVG-20010904/DTD/svg10.dtd">
<svg version="1.0" id="Layer_1" xmlns="http://www.w3.org/2000/svg" xmlns:xlink="http://www.w3.org/1999/xlink" x="0px" y="0px"
	 width="100px" height="100px" viewBox="0 0 100 100" enable-background="new 0 0 100 100" xml:space="preserve">
<path fill="#212121" d="M68.333,24.999c0-8.281-6.715-14.998-15-14.998v6.667c4.604,0,8.334,3.73,8.334,8.331
	c0,3.407-2.051,6.323-4.978,7.62l0.005,0.009c-1.77-1.607-4.112-2.594-6.694-2.594c-2.58,0-4.921,0.985-6.689,2.589l0.002-0.004
	c-2.93-1.296-4.98-4.212-4.98-7.617c0-4.603,3.73-8.333,8.334-8.333V10c-8.285,0-15,6.716-15,15c0,5.938,3.477,11.019,8.482,13.45
	l0.023-0.042c-0.083,0.52-0.138,1.049-0.138,1.592c0,5.512,4.457,9.967,9.966,9.967s9.967-4.455,9.967-9.967
	c0-0.543-0.056-1.073-0.139-1.592l0.023,0.044C64.857,36.023,68.333,30.935,68.333,24.999z M50,43.333
	c-1.843,0-3.333-1.49-3.333-3.333s1.49-3.333,3.333-3.333s3.333,1.49,3.333,3.333S51.843,43.333,50,43.333z"/>
<path fill="#FFC107" d="M40.458,42.874l-8.102,8.103C31.062,52.271,30,54.831,30,56.667V90h6.667L36.66,56.79
	c0.039-0.306,0.306-0.95,0.41-1.101l7.376-7.38l-0.045-0.061C42.532,46.978,41.122,45.089,40.458,42.874z"/>
<path fill="#FFC107" d="M67.645,50.977l-8.103-8.102c-0.665,2.219-2.079,4.111-3.953,5.38L55.55,48.31l7.38,7.38
	c0.104,0.149,0.371,0.795,0.41,1.101L63.333,90H70V56.667C70,54.831,68.938,52.271,67.645,50.977z"/>
</svg>
