<?xml version="1.0" encoding="utf-8"?>
<!-- Generator: Adobe Illustrator 16.0.0, SVG Export Plug-In . SVG Version: 6.00 Build 0)  -->
<!DOCTYPE svg PUBLIC "-//W3C//DTD SVG 1.0//EN" "http://www.w3.org/TR/2001/REC-SVG-20010904/DTD/svg10.dtd">
<svg version="1.0" id="Layer_1" xmlns="http://www.w3.org/2000/svg" xmlns:xlink="http://www.w3.org/1999/xlink" x="0px" y="0px"
	 width="100px" height="100px" viewBox="0 0 100 100" enable-background="new 0 0 100 100" xml:space="preserve">
<path fill="#FFC107" d="M67.645,57.645l-8.075-8.076c-0.677,2.235-2.114,4.14-4.014,5.413l7.374,7.374
	c0.104,0.15,0.371,0.795,0.41,1.102L63.333,90H70V63.333C70,61.497,68.938,58.938,67.645,57.645z"/>
<path fill="#212121" d="M53.333,10h-6.666L33.333,30v16.667H40l0,0v0c0,5.518,4.472,10,10,10s10-4.481,10-10v0l0,0h6.667V30
	L53.333,10z M42.557,40H40v-7.981l6.667-10v15.227C45.07,37.81,43.664,38.765,42.557,40z M50,50c-1.843,0-3.333-1.494-3.333-3.333
	c0-1.843,1.49-3.334,3.333-3.334s3.333,1.491,3.333,3.334C53.333,48.506,51.843,50,50,50z M60,40h-2.557
	c-1.107-1.235-2.514-2.19-4.11-2.754V22.019l6.667,10V40z"/>
<path fill="#FFC107" d="M44.445,54.981c-1.9-1.271-3.336-3.177-4.014-5.412l-8.074,8.073C31.062,58.938,30,61.497,30,63.333V90
	h6.667L36.66,63.457c0.039-0.307,0.306-0.95,0.41-1.102L44.445,54.981z"/>
</svg>
