<?xml version="1.0" encoding="utf-8"?>
<!-- Generator: Adobe Illustrator 16.0.0, SVG Export Plug-In . SVG Version: 6.00 Build 0)  -->
<!DOCTYPE svg PUBLIC "-//W3C//DTD SVG 1.0//EN" "http://www.w3.org/TR/2001/REC-SVG-20010904/DTD/svg10.dtd">
<svg version="1.0" id="Layer_1" xmlns="http://www.w3.org/2000/svg" xmlns:xlink="http://www.w3.org/1999/xlink" x="0px" y="0px"
	 width="100px" height="100px" viewBox="0 0 100 100" enable-background="new 0 0 100 100" xml:space="preserve">
<path fill="#212121" d="M60.169,10l-9.716,26.69c-0.151-0.007-0.3-0.023-0.453-0.023s-0.302,0.016-0.453,0.023L39.831,10
	C29.45,13.776,24.102,25.254,27.878,35.632c2.132,5.86,6.718,10.107,12.173,12.027c0.497,5.059,4.756,9.008,9.949,9.008
	c5.192,0,9.451-3.947,9.948-9.007c5.453-1.919,10.041-6.167,12.174-12.028C75.898,25.254,70.55,13.776,60.169,10z M41.68,41.118
	c-3.377-1.368-6.194-4.082-7.535-7.766c-1.687-4.629-0.636-9.596,2.313-13.13l6.908,18.974
	C42.727,39.763,42.156,40.405,41.68,41.118z M50,50c-1.843,0-3.333-1.491-3.333-3.333c0-1.843,1.49-3.334,3.333-3.334
	s3.333,1.491,3.333,3.334C53.333,48.509,51.843,50,50,50z M65.855,33.353c-1.342,3.685-4.158,6.397-7.534,7.767
	c-0.477-0.714-1.047-1.355-1.687-1.924l6.907-18.974C66.491,23.757,67.542,28.724,65.855,33.353z"/>
<path fill="#FFC107" d="M40.49,49.752L26.667,87.723L32.93,90l12.533-34.428C43.119,54.377,41.312,52.29,40.49,49.752z"/>
<path fill="#FFC107" d="M59.51,49.752c-0.821,2.538-2.629,4.625-4.973,5.82L67.07,90l6.263-2.277L59.51,49.752z"/>
</svg>
