<?xml version="1.0" encoding="utf-8"?>
<!-- Generator: Adobe Illustrator 16.0.0, SVG Export Plug-In . SVG Version: 6.00 Build 0)  -->
<!DOCTYPE svg PUBLIC "-//W3C//DTD SVG 1.0//EN" "http://www.w3.org/TR/2001/REC-SVG-20010904/DTD/svg10.dtd">
<svg version="1.0" id="Layer_1" xmlns="http://www.w3.org/2000/svg" xmlns:xlink="http://www.w3.org/1999/xlink" x="0px" y="0px"
	 width="100px" height="100px" viewBox="0 0 100 100" enable-background="new 0 0 100 100" xml:space="preserve">
<path fill="#FFC107" d="M35.938,59.355l-4.716-4.719L18.063,67.8c3.317,5.957,8.185,10.82,14.142,14.14l13.159-13.156l-4.712-4.713
	l4.712-4.715l7.07,7.07c1.307,1.297,1.303,3.411,0,4.715L33.574,90C23.273,85.729,14.609,77.539,10,66.434l18.863-18.868
	c1.303-1.303,3.414-1.303,4.718,0l7.07,7.069L35.938,59.355z"/>
<path fill="#212121" d="M75.859,10L64.075,21.777c-3.076,3.08-3.691,7.644-1.925,11.357L28.721,66.57l4.712,4.713l33.435-33.431
	c3.715,1.765,8.274,1.146,11.348-1.927L90,24.141L75.859,10z M73.503,31.211c-1.299,1.296-3.412,1.296-4.714,0
	c-1.299-1.302-1.299-3.418,0-4.714l7.07-7.069l4.714,4.713L73.503,31.211z"/>
</svg>
