<?xml version="1.0" encoding="utf-8"?>
<!-- Generator: Adobe Illustrator 16.0.0, SVG Export Plug-In . SVG Version: 6.00 Build 0)  -->
<!DOCTYPE svg PUBLIC "-//W3C//DTD SVG 1.0//EN" "http://www.w3.org/TR/2001/REC-SVG-20010904/DTD/svg10.dtd">
<svg version="1.0" id="Layer_1" xmlns="http://www.w3.org/2000/svg" xmlns:xlink="http://www.w3.org/1999/xlink" x="0px" y="0px"
	 width="100px" height="100px" viewBox="0 0 100 100" enable-background="new 0 0 100 100" xml:space="preserve">
<polygon fill="#FFC107" points="80.932,23.786 85.755,18.961 81.038,14.245 76.204,19.079 "/>
<polygon fill="#FFC107" points="52.863,42.417 10,85.286 14.707,90 57.596,47.124 "/>
<path fill="#212121" d="M80.932,23.786l-4.728-4.708c-4.336-3.809-9.22-6.896-14.495-9.079l-17.92,17.917
	c2.263,5.463,5.378,10.301,9.074,14.5l4.732,4.707c4.331,3.802,9.211,6.888,14.484,9.076L90,38.276
	C87.736,32.82,84.626,27.986,80.932,23.786z M70.674,48.178c-8.072-4.271-14.593-10.79-18.863-18.854l11.309-11.305
	c8.066,4.265,14.59,10.784,18.861,18.851L70.674,48.178z"/>
</svg>
