<?xml version="1.0" encoding="utf-8"?>
<!-- Generator: Adobe Illustrator 16.0.0, SVG Export Plug-In . SVG Version: 6.00 Build 0)  -->
<!DOCTYPE svg PUBLIC "-//W3C//DTD SVG 1.0//EN" "http://www.w3.org/TR/2001/REC-SVG-20010904/DTD/svg10.dtd">
<svg version="1.0" id="Layer_1" xmlns="http://www.w3.org/2000/svg" xmlns:xlink="http://www.w3.org/1999/xlink" x="0px" y="0px"
	 width="100px" height="100px" viewBox="0 0 100 100" enable-background="new 0 0 100 100" xml:space="preserve">
<polygon fill="#FFC107" points="70,10 90,90 83.128,90 81.462,83.333 51.667,83.333 53.333,76.667 79.795,76.667 78.128,70 55,70 
	56.667,63.333 76.462,63.333 74.795,56.667 58.333,56.667 60,50 73.128,50 71.462,43.333 61.667,43.333 63.333,36.667 
	69.795,36.667 66.563,23.743 "/>
<path fill="#212121" d="M63.128,10l-1.666,6.667H35.205L36.872,10H30L10,90h6.871l3.334-13.333h26.257L43.128,90H50l20-80H63.128z
	 M48.128,70H21.872l1.666-6.667h26.257L48.128,70z M51.462,56.667H25.205L26.872,50h26.256L51.462,56.667z M54.795,43.333H28.538
	l1.667-6.666h26.257L54.795,43.333z M58.128,30H31.872l1.666-6.667h26.257L58.128,30z"/>
</svg>
