<?xml version="1.0" encoding="utf-8"?>
<!-- Generator: Adobe Illustrator 16.0.0, SVG Export Plug-In . SVG Version: 6.00 Build 0)  -->
<!DOCTYPE svg PUBLIC "-//W3C//DTD SVG 1.0//EN" "http://www.w3.org/TR/2001/REC-SVG-20010904/DTD/svg10.dtd">
<svg version="1.0" id="Layer_1" xmlns="http://www.w3.org/2000/svg" xmlns:xlink="http://www.w3.org/1999/xlink" x="0px" y="0px"
	 width="100px" height="100px" viewBox="0 0 100 100" enable-background="new 0 0 100 100" xml:space="preserve">
<path fill="#212121" d="M36.667,22.344c0-5.593-3.45-10.365-8.333-12.344v10.677c0,2.76-2.24,5-5,5c-2.761,0-5-2.24-5-5V10
	C13.451,11.979,10,16.751,10,22.344c0,5.593,3.451,10.365,8.333,12.344V85c0,2.762,2.239,5,5,5c2.76,0,5-2.238,5-5V34.688
	C33.216,32.708,36.667,27.936,36.667,22.344z"/>
<polygon fill="#212121" points="50,56.667 50,23.333 51.667,18.333 48.333,10 45,10 41.667,18.333 43.334,23.333 43.334,56.666 "/>
<path fill="#212121" d="M66.667,10c0,5.522-4.479,10-10,10v10h15v55c0,2.762,2.239,5,5,5c2.76,0,5-2.238,5-5V30H90V10H66.667z
	 M83.333,23.333H66.657c2.288-1.721,4.12-4.014,5.282-6.667h11.394V23.333z"/>
<polygon fill="#FFC107" points="67.5,36.667 54.167,36.667 54.167,41.667 58.001,41.667 59.167,53.333 62.5,53.333 63.665,41.667 
	67.5,41.667 "/>
<path fill="#FFC107" d="M36.667,56.666V80c0,5.521,4.478,10,10,10c5.521,0,10-4.479,10-10V56.667L36.667,56.666z M50,80
	c0,1.839-1.498,3.333-3.333,3.333c-1.837,0-3.333-1.494-3.333-3.333V63.333H50V80z"/>
</svg>
