<?xml version="1.0" encoding="utf-8"?>
<!-- Generator: Adobe Illustrator 16.0.0, SVG Export Plug-In . SVG Version: 6.00 Build 0)  -->
<!DOCTYPE svg PUBLIC "-//W3C//DTD SVG 1.0//EN" "http://www.w3.org/TR/2001/REC-SVG-20010904/DTD/svg10.dtd">
<svg version="1.0" id="Layer_1" xmlns="http://www.w3.org/2000/svg" xmlns:xlink="http://www.w3.org/1999/xlink" x="0px" y="0px"
	 width="100px" height="100px" viewBox="0 0 100 100" enable-background="new 0 0 100 100" xml:space="preserve">
<path fill="#212121" d="M83.333,56.663v20.004c0,3.683-2.983,6.666-6.666,6.666L23.333,83.33c-3.682,0-6.666-2.984-6.666-6.667v-20
	h6.666v20h53.334v-20H83.333z"/>
<path fill="#212121" d="M30,29.997v-6.663c0-3.683,2.984-6.667,6.667-6.667h26.666c3.687,0,6.667,2.985,6.667,6.667v6.663
	l-6.667-0.001v-6.663H36.667v6.663L30,29.997z"/>
<path fill="#FFC107" d="M76.667,29.997H23.333C15.971,29.997,10,35.967,10,43.33v13.333h30v3.334c0,1.842,1.491,3.333,3.333,3.333
	h13.334c1.842,0,3.333-1.491,3.333-3.333v-3.334h30V43.33C90,35.967,84.029,29.997,76.667,29.997z M83.333,49.997H16.667V43.33
	c0-3.675,2.987-6.667,6.666-6.667h53.334c3.675,0,6.666,2.988,6.666,6.667V49.997z"/>
</svg>
