<?xml version="1.0" encoding="utf-8"?>
<!-- Generator: Adobe Illustrator 16.0.0, SVG Export Plug-In . SVG Version: 6.00 Build 0)  -->
<!DOCTYPE svg PUBLIC "-//W3C//DTD SVG 1.0//EN" "http://www.w3.org/TR/2001/REC-SVG-20010904/DTD/svg10.dtd">
<svg version="1.0" id="Layer_1" xmlns="http://www.w3.org/2000/svg" xmlns:xlink="http://www.w3.org/1999/xlink" x="0px" y="0px"
	 width="100px" height="100px" viewBox="0 0 100 100" enable-background="new 0 0 100 100" xml:space="preserve">
<path fill="#FFC107" d="M30,70v13.333H16.667V70H10v13.333C10,87.012,12.985,90,16.667,90H30c3.678,0,6.667-2.984,6.667-6.667V70H30
	z"/>
<polygon fill="#FFC107" points="43.333,16.667 36.667,10 30,10 30,30 36.667,29.997 43.334,23.334 "/>
<polygon fill="#FFC107" points="83.333,46.667 70,46.667 70,51.667 73.835,51.667 75,63.333 78.333,63.333 79.499,51.667 
	83.333,51.667 "/>
<polygon fill="#FFC107" points="80.568,90 90,80.572 86.465,77.038 83.753,79.749 74.678,72.324 72.32,74.682 79.746,83.753 
	77.034,86.465 "/>
<path fill="#212121" d="M70,13.333V10H43.333l0.001,20h8.333v55c0,2.754,2.246,5,5,5s5-2.246,5-5V30H70v-3.333
	c9.202,0,16.667,4.473,16.667,10H90C90,23.776,81.042,13.333,70,13.333z M63.333,23.333H50v-6.667h13.333V23.333z"/>
<path fill="#212121" d="M35.815,61.296l1.563-4.696l-4.525-1.971l1.563-4.692l-4.528-1.98l1.563-4.692l-4.526-1.974l1.567-4.684
	l-4.53-1.981l1.572-4.673l-4.521-1.962l1.572-4.672l-4.528-1.978l1.567-4.683L15,14.684V10h-5v60h33.334v-5.4L35.815,61.296z
	 M16.667,63.333v-30l13.333,30H16.667z"/>
</svg>
