<?xml version="1.0" encoding="utf-8"?>
<!-- Generator: Adobe Illustrator 16.0.0, SVG Export Plug-In . SVG Version: 6.00 Build 0)  -->
<!DOCTYPE svg PUBLIC "-//W3C//DTD SVG 1.0//EN" "http://www.w3.org/TR/2001/REC-SVG-20010904/DTD/svg10.dtd">
<svg version="1.0" id="Layer_1" xmlns="http://www.w3.org/2000/svg" xmlns:xlink="http://www.w3.org/1999/xlink" x="0px" y="0px"
	 width="100px" height="100px" viewBox="0 0 100 100" enable-background="new 0 0 100 100" xml:space="preserve">
<path fill="#FFC107" d="M36.667,40v6.666H30V40h-6.667v50H30v-9.999h6.667V90h6.666V40H36.667z M36.667,73.333H30v-6.667h6.667
	V73.333z M36.667,60.001H30v-6.668h6.667V60.001z"/>
<path fill="#212121" d="M30,10h-6.667L10,33.333V40h66.667v30.001h6.666V40H90v-6.666L30,10z M23.333,33.333h-5.657l5.657-9.897
	V33.333z M30,33.333v-9.897l5.657,9.897H30z M43.333,33.333l-8.079-14.138l36.354,14.138H43.333z"/>
</svg>
