<?xml version="1.0" encoding="utf-8"?>
<!-- Generator: Adobe Illustrator 16.0.0, SVG Export Plug-In . SVG Version: 6.00 Build 0)  -->
<!DOCTYPE svg PUBLIC "-//W3C//DTD SVG 1.0//EN" "http://www.w3.org/TR/2001/REC-SVG-20010904/DTD/svg10.dtd">
<svg version="1.0" id="Layer_1" xmlns="http://www.w3.org/2000/svg" xmlns:xlink="http://www.w3.org/1999/xlink" x="0px" y="0px"
	 width="100px" height="100px" viewBox="0 0 100 100" enable-background="new 0 0 100 100" xml:space="preserve">
<path fill="#212121" d="M80,70.001H56.667V36.667H10V80c0,5.521,4.477,10,10,10h60c5.521,0,10-4.479,10-10S85.521,70.001,80,70.001z
	 M40,43.333h10v26.668H40V43.333z M16.667,43.333h16.666v10H16.667V43.333z M16.667,60.001h16.666v10H16.667V60.001z M80,83.333H20
	c-1.839,0-3.333-1.497-3.333-3.333c0-1.843,1.494-3.333,3.333-3.333h60c1.839,0,3.333,1.49,3.333,3.333
	C83.333,81.836,81.839,83.333,80,83.333z"/>
<path fill="#FFC107" d="M83.333,43.333V10h-6.666l-20,26.667v11.11l20-26.667v22.223H70v20.001h20V43.333H83.333z M83.333,56.666
	h-6.666v-6.667h6.666V56.666z"/>
</svg>
