<?xml version="1.0" encoding="utf-8"?>
<!-- Generator: Adobe Illustrator 16.0.0, SVG Export Plug-In . SVG Version: 6.00 Build 0)  -->
<!DOCTYPE svg PUBLIC "-//W3C//DTD SVG 1.0//EN" "http://www.w3.org/TR/2001/REC-SVG-20010904/DTD/svg10.dtd">
<svg version="1.0" id="Layer_1" xmlns="http://www.w3.org/2000/svg" xmlns:xlink="http://www.w3.org/1999/xlink" x="0px" y="0px"
	 width="100px" height="100px" viewBox="0 0 100 100" enable-background="new 0 0 100 100" xml:space="preserve">
<path fill="#FFC107" d="M86.667,44.255V10H80L58.665,52.665l-11.998-36H20v40h6.667V43.333h10v13.332h6.665V43.333h5.196
	l4.442,13.332h11.151L80,24.907v19.348c-1.984,1.155-3.333,3.279-3.333,5.744c0,3.679,2.981,6.666,6.667,6.666
	c3.687,0,6.666-2.987,6.666-6.666C90,47.534,88.653,45.41,86.667,44.255z M26.667,36.666V23.333h15.194l4.443,13.332H26.667z"/>
<path fill="#212121" d="M80,70.001h-6.666V56.665H10v6.668h10v6.668c-5.521,0-10,4.479-10,9.999s4.479,10,10,10h60
	c5.522,0,10-4.479,10-10C90,74.478,85.522,70.001,80,70.001z M26.667,63.333h40v6.668h-40V63.333z M80,83.332H20
	c-1.836,0-3.333-1.496-3.333-3.332c0-1.845,1.497-3.334,3.333-3.334h60c1.839,0,3.334,1.489,3.334,3.334
	C83.334,81.836,81.839,83.332,80,83.332z"/>
</svg>
