<?xml version="1.0" encoding="utf-8"?>
<!-- Generator: Adobe Illustrator 16.0.0, SVG Export Plug-In . SVG Version: 6.00 Build 0)  -->
<!DOCTYPE svg PUBLIC "-//W3C//DTD SVG 1.0//EN" "http://www.w3.org/TR/2001/REC-SVG-20010904/DTD/svg10.dtd">
<svg version="1.0" id="Layer_1" xmlns="http://www.w3.org/2000/svg" xmlns:xlink="http://www.w3.org/1999/xlink" x="0px" y="0px"
	 width="100px" height="100px" viewBox="0 0 100 100" enable-background="new 0 0 100 100" xml:space="preserve">
<path fill="#FFC107" d="M43.333,13.333H16.667v40h6.666V39.999h10v13.334H40V39.999h5.195l4.444,13.334h7.028L43.333,13.333z
	 M23.333,33.333V19.999h15.195l4.443,13.334H23.333z"/>
<path fill="#212121" d="M83.333,53.333V39.999h-6.666v13.334H10v6.668h6.667v7.276C12.793,68.652,10,72.316,10,76.667
	c0,5.521,4.476,10,10,10h43.333c5.521,0,10-4.479,10-10s-4.479-10-10-10v-6.666h13.594c0.658,9.142,2.634,18.071,5.925,26.666H90
	C85.723,76.406,83.333,65.148,83.333,53.333z M23.333,60.001h33.334v6.666H23.333V60.001z M66.667,76.667
	c0,1.836-1.494,3.334-3.334,3.334H20c-1.836,0-3.333-1.498-3.333-3.334c0-1.842,1.497-3.334,3.333-3.334h43.333
	C65.173,73.333,66.667,74.825,66.667,76.667z"/>
</svg>
