<?xml version="1.0" encoding="utf-8"?>
<!-- Generator: Adobe Illustrator 16.0.0, SVG Export Plug-In . SVG Version: 6.00 Build 0)  -->
<!DOCTYPE svg PUBLIC "-//W3C//DTD SVG 1.0//EN" "http://www.w3.org/TR/2001/REC-SVG-20010904/DTD/svg10.dtd">
<svg version="1.0" id="Layer_1" xmlns="http://www.w3.org/2000/svg" xmlns:xlink="http://www.w3.org/1999/xlink" x="0px" y="0px"
	 width="100px" height="100px" viewBox="0 0 100 100" enable-background="new 0 0 100 100" xml:space="preserve">
<path fill="#212121" d="M79.389,66.668c-1.381-3.881-5.043-6.667-9.389-6.667s-8.008,2.786-9.389,6.667H50V33.333H30l-6.667,16.666
	L10,53.333v20.001h10.612c1.377,3.874,5.039,6.667,9.388,6.667s8.011-2.793,9.388-6.667h21.225c1.38,3.874,5.041,6.667,9.388,6.667
	c4.349,0,8.008-2.793,9.388-6.667H90v-6.666H79.389z M30,73.334c-1.836,0-3.333-1.497-3.333-3.333c0-1.843,1.497-3.333,3.333-3.333
	s3.333,1.49,3.333,3.333C33.333,71.837,31.836,73.334,30,73.334z M43.333,66.668h-3.945c-1.377-3.881-5.039-6.667-9.388-6.667
	s-8.011,2.786-9.388,6.667h-3.945v-8.132l7.486-1.87h19.18V66.668z M43.333,49.999H30.515l3.997-10h8.821V49.999z M70,73.334
	c-1.839,0-3.333-1.497-3.333-3.333c0-1.843,1.494-3.333,3.333-3.333s3.333,1.49,3.333,3.333C73.333,71.837,71.839,73.334,70,73.334z
	"/>
<path fill="#FFC107" d="M60.205,26.667l-1.667-6.667H36.667v6.667h16.666L60,53.333h30V26.667H60.205z M83.333,46.667H65.205
	l-3.333-13.333h21.461V46.667z"/>
</svg>
