<?xml version="1.0" encoding="utf-8"?>
<!-- Generator: Adobe Illustrator 16.0.0, SVG Export Plug-In . SVG Version: 6.00 Build 0)  -->
<!DOCTYPE svg PUBLIC "-//W3C//DTD SVG 1.0//EN" "http://www.w3.org/TR/2001/REC-SVG-20010904/DTD/svg10.dtd">
<svg version="1.0" id="Layer_1" xmlns="http://www.w3.org/2000/svg" xmlns:xlink="http://www.w3.org/1999/xlink" x="0px" y="0px"
	 width="100px" height="100px" viewBox="0 0 100 100" enable-background="new 0 0 100 100" xml:space="preserve">
<path fill="#212121" d="M79.389,70.001c-1.381-3.88-5.043-6.667-9.389-6.667s-8.008,2.787-9.389,6.667H50V36.666H30l-6.667,16.667
	L10,56.666v20.002h10.612c1.377,3.873,5.039,6.666,9.388,6.666s8.011-2.793,9.388-6.666h21.225c1.38,3.873,5.041,6.666,9.388,6.666
	c4.349,0,8.008-2.793,9.388-6.666H90v-6.667H79.389z M30,76.668c-1.836,0-3.333-1.498-3.333-3.334c0-1.842,1.497-3.333,3.333-3.333
	s3.333,1.491,3.333,3.333C33.333,75.17,31.836,76.668,30,76.668z M43.333,70.001h-3.945c-1.377-3.88-5.039-6.667-9.388-6.667
	s-8.011,2.787-9.388,6.667h-3.945v-8.132l7.486-1.868h19.18V70.001z M43.333,53.333H30.515l3.997-10h8.821V53.333z M70,76.668
	c-1.839,0-3.333-1.498-3.333-3.334c0-1.842,1.494-3.333,3.333-3.333s3.333,1.491,3.333,3.333C73.333,75.17,71.839,76.668,70,76.668z
	"/>
<path fill="#FFC107" d="M73.333,23.333l-3.524,7.049L56.094,16.666H10v20h6.667V23.333h36.666l13.334,13.333v13.333h-10v6.667H90
	V23.333H73.333z M83.333,49.999h-10v-6.666h10V49.999z M74.121,36.666l3.333-6.667h5.879v6.667H74.121z"/>
</svg>
