<?xml version="1.0" encoding="utf-8"?>
<!-- Generator: Adobe Illustrator 16.0.0, SVG Export Plug-In . SVG Version: 6.00 Build 0)  -->
<!DOCTYPE svg PUBLIC "-//W3C//DTD SVG 1.0//EN" "http://www.w3.org/TR/2001/REC-SVG-20010904/DTD/svg10.dtd">
<svg version="1.0" id="Layer_1" xmlns="http://www.w3.org/2000/svg" xmlns:xlink="http://www.w3.org/1999/xlink" x="0px" y="0px"
	 width="100px" height="100px" viewBox="0 0 100 100" enable-background="new 0 0 100 100" xml:space="preserve">
<path fill="#FFC107" d="M63.333,15H36.667L23.333,31.667V55H30V38.333h16.667V55h6.666V38.333H70V55h6.667V31.667L63.333,15z
	 M31.872,31.667l7.998-10h20.26l7.998,10H31.872z"/>
<path fill="#212121" d="M76.667,38.333v10.671L81.465,55h-62.93l4.798-5.996V38.333L10,55v30h80V55L76.667,38.333z M35,78.333
	H16.667V61.667H35V78.333z M58.333,78.333H41.667V61.667h16.666V78.333z M83.333,78.333H65V61.667h18.333V78.333z"/>
</svg>
