<?xml version="1.0" encoding="utf-8"?>
<!-- Generator: Adobe Illustrator 16.0.0, SVG Export Plug-In . SVG Version: 6.00 Build 0)  -->
<!DOCTYPE svg PUBLIC "-//W3C//DTD SVG 1.0//EN" "http://www.w3.org/TR/2001/REC-SVG-20010904/DTD/svg10.dtd">
<svg version="1.0" id="Layer_1" xmlns="http://www.w3.org/2000/svg" xmlns:xlink="http://www.w3.org/1999/xlink" x="0px" y="0px"
	 width="100px" height="100px" viewBox="0 0 100 100" enable-background="new 0 0 100 100" xml:space="preserve">
<path fill="#FFC107" d="M30.512,34.354l-20.485-8.481c-0.43,8.223,4.264,16.197,12.306,19.525l3.079,1.279L30.512,34.354z"/>
<path fill="#212121" d="M87.063,72.93L54.751,40.605l-7.562-18.261c-1.961-4.72-5.724-8.703-10.821-10.82
	c-8.047-3.333-17.006-1.008-22.514,5.112l20.488,8.483L22.982,52.546l26.336,10.911l23.61,23.613c3.906,3.906,10.234,3.906,14.142,0
	C90.978,83.164,90.978,76.836,87.063,72.93z M42.951,39.173l-3.829,9.237c-0.696,1.693-2.656,2.503-4.35,1.804
	c-1.698-0.703-2.506-2.662-1.803-4.355l3.82-9.238c0.703-1.696,2.664-2.506,4.355-1.803C42.841,35.518,43.654,37.479,42.951,39.173z
	 M82.361,82.352c-1.303,1.301-3.418,1.301-4.721,0.006L53.102,57.807l4.711-4.713L82.35,77.645c0.858,0.853,0.982,1.842,0.982,2.355
	S83.208,81.504,82.361,82.352z"/>
</svg>
