<?xml version="1.0" encoding="utf-8"?>
<!-- Generator: Adobe Illustrator 16.0.0, SVG Export Plug-In . SVG Version: 6.00 Build 0)  -->
<!DOCTYPE svg PUBLIC "-//W3C//DTD SVG 1.0//EN" "http://www.w3.org/TR/2001/REC-SVG-20010904/DTD/svg10.dtd">
<svg version="1.0" id="Layer_1" xmlns="http://www.w3.org/2000/svg" xmlns:xlink="http://www.w3.org/1999/xlink" x="0px" y="0px"
	 width="100px" height="100px" viewBox="0 0 100 100" enable-background="new 0 0 100 100" xml:space="preserve">
<path fill="#FFC107" d="M61.667,40v-8.997c3.929-1.879,6.666-5.857,6.666-10.502c0-4.646-2.737-8.623-6.666-10.501v10.501
	c0,2.761-2.24,5-5,5c-2.761,0-5-2.239-5-5V10C47.734,11.878,45,15.855,45,20.501c0,4.645,2.734,8.623,6.667,10.502V40H61.667z"/>
<path fill="#FFC107" d="M51.667,68.662V85c0,2.762,2.239,5,5,5c2.76,0,5-2.238,5-5V71.055L51.667,68.662z"/>
<path fill="#212121" d="M71.182,40H23.333v26.667h20l21.364,5.114c3.566,0.854,7.072-1.391,7.793-4.983l4.05-20.261
	C77.259,42.94,74.848,40,71.182,40z M36.667,60H30V46.667h6.667V60z M66.003,65.236l-22.67-5.426V46.667h26.381L66.003,65.236z"/>
</svg>
