<?xml version="1.0" encoding="utf-8"?>
<!-- Generator: Adobe Illustrator 16.0.0, SVG Export Plug-In . SVG Version: 6.00 Build 0)  -->
<!DOCTYPE svg PUBLIC "-//W3C//DTD SVG 1.0//EN" "http://www.w3.org/TR/2001/REC-SVG-20010904/DTD/svg10.dtd">
<svg version="1.0" id="Layer_1" xmlns="http://www.w3.org/2000/svg" xmlns:xlink="http://www.w3.org/1999/xlink" x="0px" y="0px"
	 width="100px" height="100px" viewBox="0 0 100 100" enable-background="new 0 0 100 100" xml:space="preserve">
<path fill="#FFC107" d="M56.667,30v-6.667H70v-4.492l-19.509-8.079C49.313,10.273,48.021,10,46.667,10c-5.524,0-10,4.477-10,10v10
	h6.666V20c0-1.839,1.498-3.333,3.334-3.333c0.437,0,0.865,0.084,1.273,0.254L50,17.773V30H56.667z"/>
<path fill="#212121" d="M30,30v23.333h6.667V80c0,5.521,4.476,10,10,10c5.521,0,10-4.479,10-10V53.333h6.666V50
	c0-1.844,0.749-3.509,1.953-4.714L70,40.573V30H30z M50,80c0,1.836-1.491,3.333-3.333,3.333c-1.843,0-3.334-1.497-3.334-3.333
	V53.333H50V80z M63.333,37.81l-2.765,2.764c-1.705,1.712-2.842,3.814-3.43,6.094H36.667v-10h26.666V37.81z"/>
</svg>
