<?xml version="1.0" encoding="utf-8"?>
<!-- Generator: Adobe Illustrator 16.0.0, SVG Export Plug-In . SVG Version: 6.00 Build 0)  -->
<!DOCTYPE svg PUBLIC "-//W3C//DTD SVG 1.0//EN" "http://www.w3.org/TR/2001/REC-SVG-20010904/DTD/svg10.dtd">
<svg version="1.0" id="Layer_1" xmlns="http://www.w3.org/2000/svg" xmlns:xlink="http://www.w3.org/1999/xlink" x="0px" y="0px"
	 width="100px" height="100px" viewBox="0 0 100 100" enable-background="new 0 0 100 100" xml:space="preserve">
<path fill="#212121" d="M70,70.001v-6.667h6.667V50H70v-3.331c0-16.571-13.432-30.003-30-30.003c-16.569,0-30,13.432-30,30.003
	c0,16.567,13.431,29.999,30,29.999h43.333v6.666H90V70.001H70z M63.333,70.001H40c-12.864,0-23.333-10.47-23.333-23.332
	c0-12.867,10.469-23.336,23.333-23.336c12.863,0,23.333,10.469,23.333,23.336V70.001z"/>
<path fill="#FFC107" d="M40,30c-9.206,0-16.667,7.461-16.667,16.667c0,9.203,7.461,16.668,16.667,16.668s16.667-7.465,16.667-16.668
	C56.667,37.461,49.206,30,40,30z M40,56.666c-5.524,0-10-4.479-10-10c0-5.523,4.476-10,10-10s10,4.477,10,10
	C50,52.188,45.524,56.666,40,56.666z"/>
<circle fill="#212121" cx="40" cy="46.666" r="3.333"/>
<circle fill="#FFC107" cx="56.665" cy="63.334" r="3.332"/>
</svg>
